<svg width="20" height="24" viewBox="0 0 20 24" fill="none" xmlns="http://www.w3.org/2000/svg">
<path d="M1.6186 0.154079L19.4606 11.0147C20.1798 11.4526 20.1798 12.5474 19.4606 12.9853L1.6186 23.8459C0.899375 24.2838 0 23.7363 0 22.8607V1.13933C0 0.26366 0.898913 -0.283757 1.6186 0.154079Z" fill="#78C9F7"/>
<path d="M19.4606 11.0147L1.6186 0.154079C1.51097 0.0888174 1.39964 0.0518031 1.28786 0.0279388L18.5367 10.5277C19.2559 10.9656 19.2559 12.0604 18.5367 12.4982L0.694741 23.3589C0.533528 23.4568 0.364 23.4992 0.196782 23.5055C0.499807 23.9623 1.10262 24.1596 1.6186 23.8459L19.4606 12.9853C20.1798 12.5474 20.1798 11.4526 19.4606 11.0147Z" fill="#78C9F7"/>
<path d="M1.6186 0.154079L19.4606 11.0147C20.1798 11.4526 20.1798 12.5474 19.4606 12.9853L1.6186 23.8459C0.899375 24.2838 0 23.7363 0 22.8607V1.13933C0 0.26366 0.898913 -0.283757 1.6186 0.154079Z" fill="#78C9F7"/>
</svg>
